<svg width="36" height="36" viewBox="0 0 36 36" fill="none" xmlns="http://www.w3.org/2000/svg">
<g clip-path="url(#clip0_238_2)">
<rect width="36" height="36" rx="10" fill="#3EBFFF"/>
<path d="M15.3008 21.8125C15.3477 21.8438 15.4727 21.8984 15.6758 21.9766C15.8867 22.0547 16.1641 22.1328 16.5078 22.2109C16.8516 22.2812 17.2305 22.3164 17.6445 22.3164C18.457 22.3164 19.1445 22.1445 19.707 21.8008C20.2695 21.457 20.5508 20.9805 20.5508 20.3711C20.5508 20.0039 20.4258 19.6953 20.1758 19.4453C19.9336 19.1953 19.6211 18.9883 19.2383 18.8242C18.8633 18.6523 18.3164 18.4375 17.5977 18.1797C16.543 17.8125 15.6719 17.4492 14.9844 17.0898C14.2969 16.7305 13.6992 16.2109 13.1914 15.5312C12.6914 14.8516 12.4414 13.9688 12.4414 12.8828C12.4414 11.8125 12.7031 10.8945 13.2266 10.1289C13.7578 9.35547 14.4844 8.77344 15.4062 8.38281C16.3281 7.99219 17.3711 7.79688 18.5352 7.79688C19.332 7.79688 20.1211 7.86719 20.9023 8.00781C21.6914 8.14844 22.3398 8.29688 22.8477 8.45312C23.3633 8.60156 23.6875 8.70312 23.8203 8.75781L23.6914 13.1172H21.4883L20.8906 11.0781C20.8281 11.0625 20.6914 11.0273 20.4805 10.9727C20.2695 10.918 20.0078 10.8633 19.6953 10.8086C19.3828 10.7461 19.0781 10.7148 18.7812 10.7148C17.9688 10.7148 17.3398 10.875 16.8945 11.1953C16.4492 11.5156 16.2266 11.9258 16.2266 12.4258C16.2266 12.9414 16.4648 13.3477 16.9414 13.6445C17.4258 13.9336 18.1875 14.2617 19.2266 14.6289C20.2812 14.9961 21.1484 15.3555 21.8281 15.707C22.5156 16.0586 23.1016 16.5625 23.5859 17.2188C24.0781 17.875 24.3242 18.7148 24.3242 19.7383C24.3242 20.9102 24.043 21.918 23.4805 22.7617C22.918 23.5977 22.1484 24.2344 21.1719 24.6719C20.1953 25.1016 19.0859 25.3164 17.8438 25.3164C17.0469 25.3164 16.25 25.2461 15.4531 25.1055C14.6641 24.9727 14.0078 24.8359 13.4844 24.6953C12.9609 24.5469 12.6289 24.4492 12.4883 24.4023V19.7969H14.9375L15.3008 21.8125Z" fill="white"/>
</g>
<defs>
<clipPath id="clip0_238_2">
<rect width="36" height="36" rx="10" fill="white"/>
</clipPath>
</defs>
</svg>
